<svg width="54" height="59" viewBox="0 0 54 59" fill="none" xmlns="http://www.w3.org/2000/svg">
<path d="M34.139 2.29688H26.9278V6.60341H31.8854V14.7141C31.8854 21.8379 25.8198 27.6338 18.3646 27.6338C10.9093 27.6338 4.84383 21.838 4.84383 14.7142V6.60341H9.65127V2.29688H2.59037C1.3457 2.29688 0.336914 3.26081 0.336914 4.45014V14.7142C0.336914 24.2131 8.42384 31.9405 18.3647 31.9405C28.3055 31.9405 36.3925 24.2131 36.3925 14.7142V4.45014C36.3925 3.26081 35.3837 2.29688 34.139 2.29688Z" fill="white"/>
<path d="M42.9275 33.7348V43.927C42.9275 49.8637 37.8729 54.6935 31.6601 54.6935C25.4472 54.6935 20.3927 49.8637 20.3927 43.927V29.8589H15.8857V43.927C15.8857 52.238 22.9616 59 31.6601 59C40.3577 59 47.4344 52.238 47.4344 43.927V33.7348H42.9275Z" fill="white"/>
<path d="M45.1819 19.8101C40.5833 19.8101 36.8433 23.3838 36.8433 27.7772C36.8433 32.17 40.5833 35.7444 45.1811 35.7444C49.779 35.7444 53.519 32.17 53.5198 27.7772C53.5196 23.3838 49.779 19.8101 45.1819 19.8101ZM45.1811 31.4379C43.0682 31.4379 41.3495 29.7957 41.3495 27.7774C41.3495 25.759 43.0681 24.1168 45.1811 24.1168C47.2934 24.1168 49.012 25.759 49.012 27.7774C49.012 29.7957 47.2934 31.4379 45.1811 31.4379Z" fill="white"/>
<path d="M9.57621 0C8.33154 0 7.32275 0.963936 7.32275 2.15327V6.74697C7.32275 7.93631 8.33154 8.90024 9.57621 8.90024C10.8209 8.90024 11.8297 7.93631 11.8297 6.74697V2.15327C11.8297 0.963936 10.8209 0 9.57621 0Z" fill="white"/>
<path d="M27.003 0C25.7583 0 24.7495 0.963936 24.7495 2.15327V6.74697C24.7495 7.93631 25.7583 8.90024 27.003 8.90024C28.2476 8.90024 29.2564 7.93631 29.2564 6.74697V2.15327C29.2564 0.963936 28.2476 0 27.003 0Z" fill="white"/>
</svg>
