<svg width="54" height="59" viewBox="0 0 54 59" fill="none" xmlns="http://www.w3.org/2000/svg">
<path d="M39.4474 29.1345C42.3994 25.1384 43.9598 20.4474 43.9598 15.5687V4.69116C43.9598 4.15396 43.5662 3.68845 43.0133 3.57151L27.3927 0.269894C27.2192 0.233603 27.0397 0.233603 26.8662 0.269894L11.2461 3.57151C10.6927 3.68845 10.2996 4.15396 10.2996 4.69116V15.5687C10.2996 20.4474 11.8599 25.1384 14.8119 29.134C17.764 33.1301 21.8804 36.1235 26.7164 37.7911C26.8497 37.8368 26.99 37.8601 27.1294 37.8601C27.2693 37.8601 27.4097 37.8368 27.5429 37.7911C32.379 36.1239 36.4954 33.1301 39.4474 29.1345ZM27.1294 35.4881C22.9417 33.9572 19.3744 31.312 16.7938 27.8181C14.1282 24.2101 12.719 19.9743 12.719 15.5687V5.61054L27.1294 2.56476L41.5403 5.61054V15.5687C41.5403 19.9738 40.1312 24.2096 37.4655 27.8181C34.8845 31.312 31.3172 33.9572 27.1294 35.4881Z" fill="white"/>
<path d="M39.4823 8.09402C39.4823 7.55637 39.0891 7.0913 38.5357 6.97437L27.393 4.61902C27.2196 4.58272 27.0395 4.58272 26.8661 4.61902L15.7229 6.97437C15.0708 7.11236 14.6601 7.72528 14.8057 8.34358C14.9508 8.96187 15.5977 9.35122 16.2493 9.21323L27.1293 6.91388L37.0628 9.0134V15.5687C37.0628 19.0984 35.9339 22.4918 33.7984 25.383C32.0826 27.7057 29.7851 29.5874 27.1293 30.8523C24.4736 29.5879 22.1765 27.7057 20.4607 25.383C18.6135 22.8825 17.5039 19.9595 17.2525 16.9307C17.2313 16.678 17.2162 16.4227 17.2072 16.1709C17.184 15.5373 16.6203 15.0422 15.9563 15.0637C15.2886 15.0857 14.766 15.6166 14.7891 16.2497C14.7995 16.5351 14.8165 16.825 14.8402 17.1108C15.1256 20.5478 16.384 23.8633 18.4788 26.6989C20.5481 29.4996 23.3636 31.7362 26.6213 33.1664C26.7825 33.2372 26.9564 33.2726 27.1298 33.2726C27.3032 33.2726 27.4766 33.2372 27.6378 33.1664C30.896 31.7358 33.7115 29.4996 35.7803 26.6989C38.2021 23.4206 39.4827 19.5715 39.4827 15.5687V8.09402H39.4823Z" fill="white"/>
<path d="M23.683 21.5228C23.8947 21.7603 24.1986 21.9059 24.5261 21.9265C24.553 21.9283 24.5799 21.9292 24.6069 21.9292C24.9055 21.9292 25.1952 21.8243 25.4182 21.633L34.1888 14.1095C34.684 13.6848 34.7223 12.9594 34.2743 12.4894C33.8258 12.0199 33.0608 11.9836 32.5655 12.4083L24.7226 19.1356L22.4842 16.6253C22.0532 16.1418 21.2896 16.0809 20.7797 16.49C20.2693 16.899 20.2055 17.6226 20.6365 18.1065L23.683 21.5228Z" fill="white"/>
<path d="M16.9426 38.2024C16.3051 37.4075 15.3784 36.9021 14.3336 36.7785C13.2888 36.6553 12.2596 36.929 11.4355 37.5505C11.0499 37.8412 10.7385 38.1898 10.5036 38.5738L10.1483 38.1347C9.83259 37.7454 9.65917 37.2606 9.65917 36.7695V26.422C9.65917 24.3082 7.84505 22.5881 5.61556 22.5881C3.51838 22.5881 1.7879 24.081 1.5899 26.06L0.295111 39.007C0.181227 40.141 0.518628 41.2661 1.24872 42.1801L11.5314 54.8748V57.8212C11.5314 58.4547 12.073 58.9681 12.7411 58.9681C13.4089 58.9681 13.9509 58.4547 13.9509 57.8212V54.485C13.9509 54.2324 13.8625 53.9868 13.7004 53.7866L3.17247 40.7889C2.8138 40.34 2.64747 39.7839 2.7037 39.2234L3.99896 26.2769C4.07835 25.4816 4.77347 24.8821 5.61556 24.8821C6.51151 24.8821 7.23971 25.573 7.23971 26.422V36.7695C7.23971 37.7633 7.59129 38.744 8.2297 39.5317L10.7621 42.6586C10.7659 42.6635 10.7697 42.6684 10.7734 42.6734L12.8167 45.1963C13.2241 45.6985 13.9835 45.7931 14.5132 45.4073C15.0429 45.0215 15.1426 44.3015 14.7358 43.7988L12.6859 41.2678C12.2109 40.672 12.3244 39.8117 12.9424 39.3458C13.2529 39.1114 13.6409 39.0084 14.0345 39.0545C14.4281 39.1011 14.7774 39.292 15.0174 39.5913L19.9012 45.6766C20.8624 46.8742 21.3916 48.3626 21.3916 49.8675V57.8212C21.3916 58.4547 21.9332 58.9681 22.6014 58.9681C23.2696 58.9681 23.8111 58.4547 23.8111 57.8212V49.8675C23.8111 47.8639 23.1065 45.8822 21.8269 44.2876L16.9426 38.2024Z" fill="white"/>
<path d="M53.6249 39.007L52.3296 26.06C52.1316 24.081 50.4007 22.5881 48.304 22.5881C46.0745 22.5881 44.2603 24.3082 44.2603 26.422V36.7695C44.2603 37.2606 44.0864 37.7454 43.7713 38.1347L43.4154 38.5738C43.181 38.1903 42.8696 37.8417 42.484 37.5505C41.6599 36.929 40.6307 36.6553 39.5859 36.7785C38.5411 36.9021 37.6144 37.4075 36.9769 38.2024L32.0931 44.2876C30.8134 45.8822 30.1084 47.8639 30.1084 49.868V57.8212C30.1084 58.4547 30.6504 58.9681 31.3181 58.9681C31.9863 58.9681 32.5279 58.4547 32.5279 57.8212V49.8675C32.5279 48.3626 33.0571 46.8742 34.0183 45.6766L38.9021 39.5913C39.1426 39.292 39.4918 39.1016 39.8855 39.0545C40.2791 39.0084 40.6671 39.1114 40.9775 39.3458C41.5952 39.8117 41.709 40.672 41.2337 41.2678L39.1842 43.7988C38.7773 44.3015 38.877 45.0215 39.4068 45.4073C39.9365 45.7931 40.6959 45.6985 41.1032 45.1963L43.1461 42.6734C43.1498 42.6689 43.1532 42.6644 43.1569 42.6599L45.6903 39.5321C46.3282 38.744 46.6798 37.7633 46.6798 36.7695V26.422C46.6798 25.573 47.4085 24.8821 48.304 24.8821C49.146 24.8821 49.8412 25.4816 49.921 26.2769L51.2163 39.2234C51.272 39.7844 51.1057 40.34 50.7518 40.7831L40.2191 53.7866C40.057 53.9868 39.9691 54.2328 39.9691 54.4855V57.8212C39.9691 58.4547 40.5107 58.9681 41.1788 58.9681C41.847 58.9681 42.3886 58.4547 42.3886 57.8212V54.8748L52.6755 42.1742C53.4009 41.2661 53.7383 40.141 53.6249 39.007Z" fill="white"/>
<path d="M15.3147 13.1C15.7405 13.3692 16.317 13.3522 16.7224 13.0561C17.1038 12.7774 17.2829 12.2908 17.1543 11.849C17.0168 11.3755 16.5698 11.0278 16.0505 11.0009C15.5363 10.9745 15.051 11.272 14.8625 11.7249C14.6555 12.2227 14.8469 12.8016 15.3147 13.1Z" fill="white"/>
</svg>
