<svg width="61" height="48" viewBox="0 0 61 48" fill="none" xmlns="http://www.w3.org/2000/svg">
<path d="M55.4705 1.75657C52.6035 0.623886 48.8759 0 44.9746 0C41.0734 0 37.3458 0.623886 34.4788 1.75657C32.7845 2.42594 31.4909 3.244 30.6442 4.16194C29.7974 3.244 28.5038 2.42606 26.8095 1.75669C23.9425 0.623886 20.2149 0 16.3137 0C12.4124 0 8.68485 0.623886 5.81782 1.75657C2.5937 3.0304 0.818115 4.84183 0.818115 6.85714V34.2857C0.818115 36.301 2.5937 38.1125 5.81782 39.3863C8.48434 40.4398 11.8955 41.0523 15.4981 41.133V41.1429C15.4981 45.0521 22.0095 48 30.6442 48C39.2788 48 45.7902 45.0521 45.7902 41.1429V41.133C49.3929 41.0523 52.804 40.4398 55.4705 39.3863C58.6946 38.1125 60.4702 36.301 60.4702 34.2857V6.85714C60.4702 4.84183 58.6946 3.0304 55.4705 1.75657ZM58.14 27.4286C58.14 28.4042 56.7835 29.5462 54.5999 30.4089C52.2366 31.3426 49.0636 31.9075 45.7902 31.9887V27.4286C45.7902 27.4253 45.79 27.4219 45.79 27.4187C49.3927 27.3382 52.8039 26.7256 55.4706 25.672C56.5172 25.2585 57.41 24.7881 58.1402 24.2727L58.14 27.4286ZM29.4791 13.7143C29.4791 14.6899 28.1226 15.8319 25.939 16.6946C23.3797 17.7058 19.8714 18.2857 16.3137 18.2857C12.756 18.2857 9.2477 17.7058 6.68837 16.6946C4.50478 15.8319 3.14827 14.6899 3.14827 13.7143V10.5584C3.87843 11.0738 4.77123 11.5442 5.81782 11.9577C8.68485 13.0904 12.4124 13.7143 16.3137 13.7143C20.2149 13.7143 23.9425 13.0904 26.8095 11.9577C27.8561 11.5442 28.7489 11.0738 29.4791 10.5584V13.7143ZM5.81782 18.8149C8.68485 19.9475 12.4124 20.5714 16.3137 20.5714C20.2149 20.5714 23.9425 19.9475 26.8095 18.8149C27.8561 18.4014 28.7489 17.931 29.4791 17.4155V20.5917C26.465 20.6918 23.5745 21.177 21.2365 21.9847C18.8915 22.7949 17.2041 23.8752 16.2865 25.1425C12.7382 25.1395 9.24118 24.5603 6.68837 23.5518C4.50478 22.689 3.14827 21.5471 3.14827 20.5714V17.4155C3.87843 17.931 4.77123 18.4014 5.81782 18.8149ZM3.14827 24.2727C3.87843 24.7881 4.77123 25.2585 5.81782 25.672C8.48446 26.7255 11.8957 27.3381 15.4985 27.4187C15.4985 27.4221 15.4982 27.4254 15.4982 27.4286V31.9887C12.2247 31.9075 9.05185 31.3426 6.68849 30.4089C4.50478 29.5462 3.14827 28.4042 3.14827 27.4286V24.2727ZM17.9515 26.8671C18.815 24.896 23.7986 22.8571 30.6442 22.8571C37.4897 22.8571 42.4733 24.896 43.3358 26.8648C43.4195 27.0569 43.46 27.2413 43.46 27.4286C43.46 28.4334 42.1972 29.5495 40.0819 30.4141C37.5798 31.4368 34.2281 32 30.6442 32C27.0603 32 23.7086 31.4368 21.2064 30.4141C19.0911 29.5495 17.8283 28.4334 17.8283 27.4286C17.8283 27.2413 17.8689 27.0569 17.9515 26.8671ZM58.14 20.5714C58.14 21.5471 56.7835 22.689 54.5999 23.5518C52.0473 24.5603 48.5504 25.1395 45.0021 25.1425C44.0852 23.8759 42.3976 22.7951 40.0518 21.9847C37.7139 21.1769 34.8233 20.6918 31.8092 20.5917V17.4155C32.5394 17.931 33.4322 18.4014 34.4788 18.8149C37.3458 19.9475 41.0734 20.5714 44.9746 20.5714C48.8759 20.5714 52.6035 19.9475 55.4705 18.8149C56.5171 18.4014 57.4099 17.931 58.14 17.4155V20.5714ZM58.14 13.7143C58.14 14.6899 56.7835 15.8319 54.5999 16.6946C52.0406 17.7058 48.5323 18.2857 44.9746 18.2857C41.417 18.2857 37.9087 17.7058 35.3493 16.6946C33.1657 15.8319 31.8092 14.6899 31.8092 13.7143V10.5584C32.5394 11.0738 33.4322 11.5442 34.4788 11.9577C37.3458 13.0904 41.0734 13.7143 44.9746 13.7143C48.8759 13.7143 52.6035 13.0904 55.4705 11.9577C56.5171 11.5442 57.4099 11.0738 58.14 10.5584V13.7143ZM35.3493 3.8768C37.9087 2.8656 41.417 2.28571 44.9746 2.28571C48.5323 2.28571 52.0406 2.8656 54.5999 3.8768C56.7835 4.73954 58.14 5.88149 58.14 6.85714C58.14 7.8328 56.7835 8.97474 54.5999 9.83749C52.0406 10.8487 48.5323 11.4286 44.9746 11.4286C41.417 11.4286 37.9087 10.8487 35.3493 9.83749C33.1657 8.97474 31.8092 7.8328 31.8092 6.85714C31.8092 5.88149 33.1657 4.73954 35.3493 3.8768ZM6.68837 3.8768C9.2477 2.8656 12.756 2.28571 16.3137 2.28571C19.8714 2.28571 23.3797 2.8656 25.939 3.8768C28.1226 4.73954 29.4791 5.88149 29.4791 6.85714C29.4791 7.8328 28.1226 8.97474 25.939 9.83749C23.3797 10.8487 19.8714 11.4286 16.3137 11.4286C12.756 11.4286 9.2477 10.8487 6.68837 9.83749C4.50478 8.97474 3.14827 7.8328 3.14827 6.85714C3.14827 5.88149 4.50478 4.73954 6.68837 3.8768ZM6.68837 37.2661C4.50478 36.4033 3.14827 35.2614 3.14827 34.2857V31.1298C3.87843 31.6453 4.77123 32.1157 5.81782 32.5291C8.48434 33.5826 11.8955 34.1952 15.4981 34.2759V38.8459C12.2246 38.7647 9.05173 38.1999 6.68837 37.2661ZM40.0819 44.1283C37.5798 45.1511 34.2281 45.7143 30.6442 45.7143C27.0603 45.7143 23.7086 45.1511 21.2064 44.1283C19.0911 43.2638 17.8283 42.1477 17.8283 41.1429V38.0536C18.0922 38.2409 18.3838 38.4271 18.7072 38.6106C20.5165 39.6376 22.9782 40.3973 25.8263 40.8073C25.8838 40.8155 25.9406 40.8195 25.997 40.8195C26.5656 40.8195 27.0632 40.4107 27.1482 39.8425C27.2417 39.2181 26.8013 38.6375 26.1648 38.5458C20.7501 37.7661 17.8283 35.769 17.8283 34.2857V31.1863C20.4653 33.0791 25.1202 34.2857 30.6442 34.2857C36.1681 34.2857 40.823 33.0791 43.46 31.1863V34.2857C43.46 35.769 40.5382 37.7661 35.1235 38.5458C34.4869 38.6375 34.0465 39.2181 34.1401 39.8425C34.2251 40.4109 34.7228 40.8195 35.2913 40.8195C35.3476 40.8195 35.4047 40.8155 35.462 40.8073C38.31 40.3973 40.7717 39.6377 42.5811 38.6106C42.9044 38.4271 43.1961 38.2409 43.46 38.0536V41.1429C43.46 42.1477 42.1972 43.2638 40.0819 44.1283ZM54.5999 37.2661C52.2366 38.1998 49.0636 38.7647 45.7902 38.8458V34.2758C49.3929 34.1951 52.804 33.5825 55.4705 32.529C56.5171 32.1155 57.4099 31.6451 58.14 31.1297V34.2857C58.14 35.2614 56.7835 36.4033 54.5999 37.2661Z" fill="white"/>
</svg>
