<svg width="46" height="44" viewBox="0 0 46 44" fill="none" xmlns="http://www.w3.org/2000/svg">
<g clip-path="url(#clip0_201_112)">
<path d="M45.1029 6.9955H31.7072C29.9413 6.98257 28.223 7.57878 26.8305 8.68751C25.438 9.79624 24.453 11.3525 24.0351 13.1042L23.9012 13.6968V8.99305C24.9885 8.75303 25.9499 8.1094 26.5988 7.18692C27.2478 6.26444 27.5382 5.12882 27.4138 4.00018C27.2893 2.87154 26.7589 1.83027 25.9252 1.07821C25.0916 0.326147 24.0141 -0.0831437 22.9017 -0.0703255C21.7893 -0.0575072 20.7212 0.376507 19.9044 1.14759C19.0876 1.91867 18.5803 2.9719 18.4808 4.10312C18.3813 5.23434 18.6968 6.36298 19.366 7.27027C20.0352 8.17755 21.0105 8.79887 22.1029 9.01377V13.701L21.9649 13.1083C21.5491 11.3583 20.567 9.80276 19.1776 8.6934C17.7882 7.58404 16.0728 6.9858 14.309 6.9955H0.913345C0.794176 6.99329 0.675772 7.01536 0.565049 7.0604C0.454326 7.10544 0.353505 7.17255 0.268473 7.25782C0.183442 7.34309 0.115906 7.4448 0.0698101 7.55702C0.0237143 7.66923 -1.68791e-05 7.7897 2.64522e-06 7.91139V8.6615C-0.000899448 9.523 0.228944 10.3684 0.664669 11.1061C1.10039 11.8439 1.72541 12.446 2.47212 12.8472V13.2327C2.47432 14.0919 2.70558 14.9342 3.14109 15.6695C3.5766 16.4047 4.19993 17.005 4.94423 17.406V17.7914C4.95495 19.0471 5.45189 20.2474 6.32654 21.1303C7.20118 22.0131 8.38247 22.5068 9.61243 22.5035H22.1029V25.4045H17.4794C16.6148 25.4045 15.7857 25.7551 15.1745 26.3792C14.5632 27.0033 14.2197 27.8497 14.2197 28.7323C14.2197 29.6149 14.5632 30.4614 15.1745 31.0855C15.7857 31.7096 16.6148 32.0602 17.4794 32.0602H22.1029V35.0027H17.6377C16.8957 35.0312 16.1935 35.3521 15.6784 35.8981C15.1634 36.4441 14.8757 37.1726 14.8757 37.9306C14.8757 38.6886 15.1634 39.4171 15.6784 39.9631C16.1935 40.5091 16.8957 40.83 17.6377 40.8585H22.1029V43.1006C22.0946 43.2263 22.1117 43.3525 22.1532 43.4712C22.1946 43.5899 22.2595 43.6986 22.3438 43.7907C22.4281 43.8827 22.53 43.9561 22.6432 44.0063C22.7565 44.0565 22.8786 44.0824 23.002 44.0824C23.1255 44.0824 23.2476 44.0565 23.3608 44.0063C23.474 43.9561 23.576 43.8827 23.6603 43.7907C23.7446 43.6986 23.8095 43.5899 23.8509 43.4712C23.8923 43.3525 23.9094 43.2263 23.9012 43.1006V40.8503H30.9765C31.0997 40.8587 31.2232 40.8412 31.3395 40.7989C31.4558 40.7566 31.5623 40.6904 31.6525 40.6043C31.7426 40.5183 31.8145 40.4142 31.8636 40.2986C31.9128 40.183 31.9381 40.0583 31.9381 39.9323C31.9381 39.8063 31.9128 39.6816 31.8636 39.566C31.8145 39.4504 31.7426 39.3463 31.6525 39.2603C31.5623 39.1742 31.4558 39.108 31.3395 39.0657C31.2232 39.0233 31.0997 39.0059 30.9765 39.0143H23.9012V36.8303H28.6424C29.5037 36.8303 30.3297 36.481 30.9387 35.8592C31.5477 35.2375 31.8899 34.3942 31.8899 33.5149C31.8899 32.6355 31.5477 31.7922 30.9387 31.1705C30.3297 30.5487 29.5037 30.1994 28.6424 30.1994H23.9012V27.2321H28.6668C29.5187 27.231 30.3354 26.8847 30.9375 26.2693C31.5395 25.6538 31.8777 24.8196 31.8777 23.9498C31.8792 23.4482 31.7666 22.9531 31.5489 22.5035H36.3916C37.6244 22.5068 38.8081 22.0108 39.6832 21.1244C40.5583 20.2379 41.0534 19.0334 41.0598 17.7748V17.406C41.8038 17.0056 42.427 16.4061 42.8625 15.6716C43.298 14.9371 43.5294 14.0954 43.5319 13.2368V12.8472C44.2757 12.4471 44.8986 11.8474 45.3335 11.1128C45.7683 10.3782 45.9988 9.53644 46 8.67808V7.91139C46 7.66848 45.9055 7.43552 45.7372 7.26375C45.569 7.09199 45.3408 6.9955 45.1029 6.9955ZM20.26 4.55865C20.2527 4.01269 20.4047 3.47687 20.6966 3.01936C20.9885 2.56186 21.4072 2.20335 21.8992 1.98946C22.3913 1.77558 22.9346 1.71597 23.4599 1.81824C23.9853 1.9205 24.469 2.18002 24.8494 2.56375C25.2299 2.94749 25.4899 3.43811 25.5965 3.97317C25.703 4.50824 25.6512 5.06357 25.4477 5.56851C25.2442 6.07344 24.8981 6.50515 24.4536 6.8087C24.009 7.11226 23.4861 7.27394 22.9513 7.27316C22.6 7.27535 22.2517 7.20687 21.9263 7.07163C21.601 6.93639 21.3049 6.73705 21.055 6.48498C20.805 6.23292 20.6062 5.93306 20.4698 5.60254C20.3334 5.27202 20.2621 4.9173 20.26 4.55865ZM9.61243 20.6675C8.88391 20.6753 8.18029 20.3971 7.64695 19.8904C7.1136 19.3837 6.79127 18.6871 6.74656 17.9447H13.0222C13.1454 17.9532 13.2689 17.9357 13.3852 17.8934C13.5015 17.8511 13.608 17.7849 13.6982 17.6988C13.7883 17.6127 13.8602 17.5087 13.9094 17.3931C13.9585 17.2775 13.9839 17.1528 13.9839 17.0268C13.9839 16.9007 13.9585 16.7761 13.9094 16.6605C13.8602 16.5449 13.7883 16.4408 13.6982 16.3547C13.608 16.2687 13.5015 16.2024 13.3852 16.1601C13.2689 16.1178 13.1454 16.1004 13.0222 16.1088H7.14031C6.41179 16.1166 5.70818 15.8384 5.17483 15.3317C4.64149 14.8249 4.31916 14.1284 4.27445 13.386H12.937C13.1749 13.386 13.4031 13.2895 13.5713 13.1177C13.7396 12.946 13.8341 12.713 13.8341 12.4701C13.8341 12.2272 13.7396 11.9942 13.5713 11.8225C13.4031 11.6507 13.1749 11.5542 12.937 11.5542H4.6682C3.93902 11.5619 3.23484 11.2832 2.70139 10.7756C2.16794 10.268 1.84605 9.57043 1.80233 8.82728H14.309C15.6687 8.81898 16.9914 9.27864 18.0637 10.1321C19.1361 10.9855 19.8955 12.1829 20.2194 13.5311L21.8675 20.6675H9.61243ZM22.1029 39.0143H17.6377C17.3654 38.9972 17.1097 38.8747 16.9229 38.6718C16.736 38.4689 16.6319 38.2008 16.6319 37.9223C16.6319 37.6438 16.736 37.3758 16.9229 37.1728C17.1097 36.9699 17.3654 36.8474 17.6377 36.8303H22.1029V39.0143ZM28.6424 32.0519C29.0246 32.0519 29.3912 32.2069 29.6614 32.4828C29.9317 32.7587 30.0835 33.1329 30.0835 33.5231C30.0835 33.9133 29.9317 34.2875 29.6614 34.5635C29.3912 34.8394 29.0246 34.9944 28.6424 34.9944H23.9012V32.0519H28.6424ZM22.1029 30.2201H17.4794C17.1046 30.2 16.7516 30.0338 16.4933 29.7558C16.235 29.4778 16.091 29.1093 16.091 28.7261C16.091 28.343 16.235 27.9744 16.4933 27.6964C16.7516 27.4185 17.1046 27.2523 17.4794 27.2321H22.1029V30.2201ZM30.0794 23.9498C30.08 24.1396 30.0438 24.3275 29.9731 24.503C29.9023 24.6785 29.7983 24.8379 29.6671 24.9723C29.5359 25.1067 29.38 25.2133 29.2083 25.286C29.0367 25.3587 28.8526 25.3962 28.6668 25.3962H23.9012V22.4952H28.5694C28.7626 22.4845 28.9559 22.5139 29.1376 22.5816C29.3194 22.6493 29.4859 22.7539 29.627 22.8891C29.7681 23.0242 29.8809 23.1872 29.9587 23.368C30.0364 23.5489 30.0775 23.744 30.0794 23.9415V23.9498ZM41.3318 11.5501H36.9762C36.7382 11.5501 36.5101 11.6466 36.3418 11.8183C36.1736 11.9901 36.0791 12.2231 36.0791 12.466C36.0791 12.7089 36.1736 12.9418 36.3418 13.1136C36.5101 13.2854 36.7382 13.3819 36.9762 13.3819H41.7296C41.6849 14.1243 41.3626 14.8208 40.8292 15.3275C40.2959 15.8342 39.5923 16.1124 38.8637 16.1047H32.9778C32.7497 16.1203 32.5361 16.2238 32.38 16.3943C32.2239 16.5647 32.137 16.7893 32.137 17.0226C32.137 17.2559 32.2239 17.4806 32.38 17.651C32.5361 17.8214 32.7497 17.9249 32.9778 17.9406H39.2575C39.2128 18.683 38.8905 19.3795 38.3571 19.8862C37.8238 20.393 37.1202 20.6712 36.3916 20.6634H24.1366L25.7847 13.5269C26.1087 12.1792 26.8683 10.9823 27.9407 10.1295C29.0131 9.27681 30.3358 8.81802 31.695 8.82728H44.2017C44.157 9.57041 43.8341 10.2675 43.2999 10.7744C42.7657 11.2812 42.061 11.5589 41.3318 11.5501Z" fill="#4E2780"/>
<path d="M32.3972 13.2327C32.5121 13.3101 32.6428 13.3596 32.7793 13.3772C32.9159 13.3948 33.0546 13.3801 33.1846 13.3342C33.3147 13.2883 33.4327 13.2125 33.5295 13.1126C33.6263 13.0127 33.6993 12.8914 33.7428 12.7581C33.7863 12.6248 33.7992 12.4831 33.7805 12.3439C33.7618 12.2047 33.7119 12.0718 33.6348 11.9554C33.5577 11.839 33.4554 11.7423 33.3358 11.6727C33.2163 11.6032 33.0826 11.5626 32.9452 11.5542C32.7481 11.5422 32.5527 11.5969 32.3891 11.7098C32.2256 11.8228 32.1031 11.9876 32.0407 12.1789C31.9782 12.3701 31.9793 12.577 32.0438 12.7675C32.1083 12.9581 32.2325 13.1216 32.3972 13.2327Z" fill="#4E2780"/>
</g>
<defs>
<clipPath id="clip0_201_112">
<rect width="46" height="44" fill="white"/>
</clipPath>
</defs>
</svg>
